<svg id="layer" data-name="레이어 1" xmlns="http://www.w3.org/2000/svg" xmlns:xlink="http://www.w3.org/1999/xlink" viewBox="0 0 1920 1080"><defs><style>.cls-1{opacity:0.65;}.cls-2,.cls-3,.cls-4{fill:#fff;}.cls-3{font-size:138.35px;font-family:'Noto Sans KR', sans-serif;font-weight:900;}.cls-4{font-size:45.85px;font-family:'Noto Sans KR', sans-serif;font-weight:700;}</style></defs><title>A1대지 12</title><image id="rem_image"  width="1280" height="768" transform="translate(-133 -37) scale(1.36)" xlink:href="https://cdn.pixabay.com/photo/2022/04/12/09/03/bird-7127630_1280.jpg"/><rect class="cls-1" x="3" width="1920" height="1080"/><path class="cls-2" d="M0,0V1080H1920V0ZM1881,1047H41V33H1881Z"/><text class="cls-3" transform="translate(116 612.75)"> <tspan id="rem_text_1">각자도생</tspan>  <tspan id="rem_text_2" x="0" y="166.02">끝에 </tspan><tspan id="rem_text_3" x="0" y="332.04">관용</tspan></text><text class="cls-4" transform="translate(166.38 116.04)" id="rem_type_1">시리즈</text><path class="cls-2" d="M131.6,101H144a10,10,0,0,1,10,10v4.29a2,2,0,0,1-2,2H123.6a2,2,0,0,1-2-2V111a10,10,0,0,1,10-10Z"/><circle class="cls-2" cx="137.71" cy="89.33" r="9.19"/></svg>